<svg version="1.1" xmlns="http://www.w3.org/2000/svg" viewBox="0 0 860 758.0610689006058" width="860" height="758.0610689006058">
  <!-- svg-source:excalidraw -->
  
  <defs>
    <style class="style-fonts">
      @font-face {
        font-family: "Virgil";
        src: url("https://excalidraw.com/Virgil.woff2");
      }
      @font-face {
        font-family: "Cascadia";
        src: url("https://excalidraw.com/Cascadia.woff2");
      }
    </style>
    
  </defs>
  <rect x="0" y="0" width="860" height="758.0610689006058" fill="#ffffff"></rect><g transform="translate(424.37703358384636 124.61033970412848) rotate(0 96.48828125 9.200000000000003)"><text x="0" y="0" font-family="Helvetica, Segoe UI Emoji" font-size="16px" fill="#1e1e1e" text-anchor="start" style="white-space: pre;" direction="ltr" dominant-baseline="text-before-edge">Wiederherstellungsprozess</text></g><g transform="translate(425.86782976215807 515.4946466349281) rotate(0 96.48828125 9.199999999999989)"><text x="0" y="0" font-family="Helvetica, Segoe UI Emoji" font-size="16px" fill="#1e1e1e" text-anchor="start" style="white-space: pre;" direction="ltr" dominant-baseline="text-before-edge">Wiederherstellungsprozess</text></g><g stroke-linecap="round"><g transform="translate(10 177) rotate(0 420 0)"><path d="M0 0 C214.35 0, 428.71 0, 840 0 M0 0 C224.62 0, 449.25 0, 840 0" stroke="#f08c00" stroke-width="4" fill="none"></path></g><g transform="translate(10 177) rotate(0 420 0)"><path d="M840 0 L826.41 6.34 L826.41 -6.34 L840 0" stroke="none" stroke-width="0" fill="#f08c00" fill-rule="evenodd"></path><path d="M840 0 C836.53 1.62, 833.06 3.24, 826.41 6.34 M840 0 C836.36 1.7, 832.73 3.39, 826.41 6.34 M826.41 6.34 C826.41 3.42, 826.41 0.49, 826.41 -6.34 M826.41 6.34 C826.41 2.23, 826.41 -1.87, 826.41 -6.34 M826.41 -6.34 C831.39 -4.02, 836.37 -1.69, 840 0 M826.41 -6.34 C830.03 -4.65, 833.66 -2.95, 840 0 M840 0 C840 0, 840 0, 840 0 M840 0 C840 0, 840 0, 840 0" stroke="#f08c00" stroke-width="4" fill="none"></path></g></g><mask></mask><g stroke-linecap="round"><g transform="translate(10.000000000000114 567.8843069307997) rotate(0 419.99999999999994 0)"><path d="M0 0 C255.45 0, 510.9 0, 840 0 M0 0 C187.17 0, 374.33 0, 840 0" stroke="#f08c00" stroke-width="4" fill="none"></path></g><g transform="translate(10.000000000000114 567.8843069307997) rotate(0 419.99999999999994 0)"><path d="M840 0 L826.41 6.34 L826.41 -6.34 L840 0" stroke="none" stroke-width="0" fill="#f08c00" fill-rule="evenodd"></path><path d="M840 0 C835.87 1.93, 831.73 3.86, 826.41 6.34 M840 0 C836.97 1.41, 833.94 2.82, 826.41 6.34 M826.41 6.34 C826.41 3.12, 826.41 -0.11, 826.41 -6.34 M826.41 6.34 C826.41 2.08, 826.41 -2.19, 826.41 -6.34 M826.41 -6.34 C831.16 -4.12, 835.92 -1.9, 840 0 M826.41 -6.34 C831 -4.2, 835.6 -2.05, 840 0 M840 0 C840 0, 840 0, 840 0 M840 0 C840 0, 840 0, 840 0" stroke="#f08c00" stroke-width="4" fill="none"></path></g></g><mask></mask><g transform="translate(456.9529220704551 254.4346611169835) rotate(0 60.02734375 9.200000000000003)"><text x="0" y="0" font-family="Helvetica, Segoe UI Emoji" font-size="16px" fill="#1e1e1e" text-anchor="start" style="white-space: pre;" direction="ltr" dominant-baseline="text-before-edge">Verstrichene Zeit</text></g><g transform="translate(498.21635870468504 281.39281136502774) rotate(0 31.640625 21.599999999999994)"><text x="0" y="0" font-family="Cascadia, Segoe UI Emoji" font-size="36px" fill="#e03131" text-anchor="start" style="white-space: pre;" direction="ltr" dominant-baseline="text-before-edge">RTO</text></g><g transform="translate(259.41150882393754 660.040835010324) rotate(0 31.640625 21.600000000000023)"><text x="0" y="0" font-family="Cascadia, Segoe UI Emoji" font-size="36px" fill="#e03131" text-anchor="start" style="white-space: pre;" direction="ltr" dominant-baseline="text-before-edge">RPO</text></g><g transform="translate(463.654291021139 652.4835056097941) rotate(0 60.02734375 9.199999999999989)"><text x="0" y="0" font-family="Helvetica, Segoe UI Emoji" font-size="16px" fill="#1e1e1e" text-anchor="start" style="white-space: pre;" direction="ltr" dominant-baseline="text-before-edge">Verstrichene Zeit</text></g><g transform="translate(249.89078182649973 159.9514944229014) rotate(0 60.4765625 18.39999999999999)"><text x="60.4765625" y="0" font-family="Helvetica, Segoe UI Emoji" font-size="16px" fill="#1e1e1e" text-anchor="middle" style="white-space: pre;" direction="ltr" dominant-baseline="text-before-edge">Üblicher</text><text x="60.4765625" y="18.4" font-family="Helvetica, Segoe UI Emoji" font-size="16px" fill="#1e1e1e" text-anchor="middle" style="white-space: pre;" direction="ltr" dominant-baseline="text-before-edge">Geschäftsbetrieb</text></g><g transform="translate(25.372984003190027 550.8358013537008) rotate(0 60.4765625 18.399999999999977)"><text x="60.4765625" y="0" font-family="Helvetica, Segoe UI Emoji" font-size="16px" fill="#1e1e1e" text-anchor="middle" style="white-space: pre;" direction="ltr" dominant-baseline="text-before-edge">Üblicher</text><text x="60.4765625" y="18.4" font-family="Helvetica, Segoe UI Emoji" font-size="16px" fill="#1e1e1e" text-anchor="middle" style="white-space: pre;" direction="ltr" dominant-baseline="text-before-edge">Geschäftsbetrieb</text></g><g transform="translate(678.1936197041614 141.7435647787061) rotate(0 74.6953125 27.599999999999994)"><text x="74.6953125" y="0" font-family="Helvetica, Segoe UI Emoji" font-size="16px" fill="#1e1e1e" text-anchor="middle" style="white-space: pre;" direction="ltr" dominant-baseline="text-before-edge">ist Wiederhergestellt;</text><text x="74.6953125" y="18.4" font-family="Helvetica, Segoe UI Emoji" font-size="16px" fill="#1e1e1e" text-anchor="middle" style="white-space: pre;" direction="ltr" dominant-baseline="text-before-edge">Üblicher</text><text x="74.6953125" y="36.8" font-family="Helvetica, Segoe UI Emoji" font-size="16px" fill="#1e1e1e" text-anchor="middle" style="white-space: pre;" direction="ltr" dominant-baseline="text-before-edge">Geschäftsbetrieb</text></g><g transform="translate(679.6844158824738 532.6278717095056) rotate(0 74.6953125 27.599999999999994)"><text x="74.6953125" y="0" font-family="Helvetica, Segoe UI Emoji" font-size="16px" fill="#1e1e1e" text-anchor="middle" style="white-space: pre;" direction="ltr" dominant-baseline="text-before-edge">ist Wiederhergestellt;</text><text x="74.6953125" y="18.4" font-family="Helvetica, Segoe UI Emoji" font-size="16px" fill="#1e1e1e" text-anchor="middle" style="white-space: pre;" direction="ltr" dominant-baseline="text-before-edge">Üblicher</text><text x="74.6953125" y="36.8" font-family="Helvetica, Segoe UI Emoji" font-size="16px" fill="#1e1e1e" text-anchor="middle" style="white-space: pre;" direction="ltr" dominant-baseline="text-before-edge">Geschäftsbetrieb</text></g><g stroke-linecap="round"><g transform="translate(402.98142544582277 106.7948051920051) rotate(0 0 82.39684711857056)"><path d="M0 0 C0 51.51, 0 103.01, 0 164.79 M0 0 C0 41.45, 0 82.9, 0 164.79" stroke="#f08c00" stroke-width="4" fill="none"></path></g></g><mask></mask><g stroke-linecap="round"><g transform="translate(404.4722216241347 498.33043371935105) rotate(0 0 82.39684711857058)"><path d="M0 0 C0 62.48, 0 124.95, 0 164.79 M0 0 C0 34.67, 0 69.35, 0 164.79" stroke="#f08c00" stroke-width="4" fill="none"></path></g></g><mask></mask><g stroke-linecap="round"><g transform="translate(195.62816518452416 497.25796657806126) rotate(0 0 82.39684711857055)"><path d="M0 0 C0 60.66, 0 121.33, 0 164.79 M0 0 C0 51.86, 0 103.72, 0 164.79" stroke="#f08c00" stroke-width="4" fill="none"></path></g></g><mask></mask><g stroke-linecap="round" transform="translate(380.0256307824137 156.4698345378902) rotate(0 21.58710870260842 21.58710870260842)"><path d="M20.36 -0.98 C24.81 -1.55, 31.31 1.05, 35.09 3.96 C38.88 6.86, 42.19 11.68, 43.05 16.45 C43.9 21.22, 42.52 28.24, 40.22 32.59 C37.93 36.94, 33.66 40.83, 29.29 42.56 C24.91 44.29, 18.27 44.71, 13.97 42.97 C9.67 41.22, 5.79 36.07, 3.51 32.09 C1.23 28.11, -0.49 23.59, 0.3 19.1 C1.08 14.6, 3.9 8.34, 8.23 5.13 C12.55 1.92, 22.56 0.19, 26.24 -0.18 C29.92 -0.54, 30.54 2.44, 30.32 2.94 M11.26 1.58 C15.04 -0.74, 23.43 -0.61, 27.93 0.61 C32.44 1.82, 35.57 5.29, 38.28 8.86 C41 12.44, 44.61 17.44, 44.23 22.05 C43.86 26.66, 39.27 33.25, 36.03 36.53 C32.78 39.81, 29.14 41.25, 24.77 41.74 C20.41 42.22, 13.7 41.65, 9.84 39.46 C5.98 37.26, 2.91 33.21, 1.61 28.54 C0.31 23.87, 0.07 15.88, 2.04 11.44 C4.02 6.99, 11.97 3.13, 13.46 1.86 C14.95 0.59, 10.89 3.24, 10.98 3.79" stroke="none" stroke-width="0" fill="#fa5252"></path><path d="M19.75 1.11 C23.91 0.52, 29.21 1.78, 33.15 4.08 C37.08 6.38, 41.84 10.59, 43.35 14.9 C44.85 19.22, 44.15 25.47, 42.18 29.96 C40.21 34.46, 35.9 39.89, 31.55 41.86 C27.2 43.84, 20.71 42.95, 16.08 41.81 C11.44 40.67, 6.5 38.63, 3.74 35.03 C0.98 31.44, -0.79 24.93, -0.49 20.26 C-0.19 15.58, 1.69 10.45, 5.56 6.98 C9.42 3.52, 19.32 0.56, 22.7 -0.54 C26.08 -1.63, 25.9 -0.09, 25.82 0.41 M28.73 -0.65 C32.75 0.27, 35.77 4.3, 37.98 8.48 C40.19 12.67, 42.4 19.88, 41.97 24.48 C41.54 29.09, 38.41 32.81, 35.4 36.12 C32.38 39.43, 28.23 43.78, 23.87 44.33 C19.51 44.89, 13.17 42.2, 9.23 39.45 C5.29 36.69, 1.41 32.52, 0.24 27.81 C-0.94 23.1, -0.08 15.76, 2.16 11.21 C4.4 6.66, 9.23 2.08, 13.69 0.5 C18.14 -1.08, 26.8 1.65, 28.9 1.71 C30.99 1.78, 26.61 0.59, 26.24 0.88" stroke="#000000" stroke-width="1" fill="none"></path></g><g stroke-linecap="round"><g transform="translate(396.8954880514834 173.20480728449104) rotate(314.8018799663395 4.813667713848304 4.671708452726719)" fill-rule="evenodd"><path d="M-1.95 -0.07 L-0.09 -11.05 L8.46 -8.97 L9.05 -0.69 L18.62 -1.98 L16.85 8.44 L8.78 7.67 L10.98 17.4 L1.59 18.62 L1.55 9.65 L-10.17 7.88 L-11.25 -0.74 L1.9 -0.92" stroke="none" stroke-width="0" fill="#ffffff" fill-rule="evenodd"></path><path d="M0.5 -0.39 C0.27 -1.41, -0.59 -4.37, 0.93 -10.13 M0.4 -0.1 C-0.29 -3.82, 0.43 -7.57, 0.12 -9.63 M-0.33 -9.86 C2.76 -9.03, 6.99 -9.2, 8.86 -8.62 M-0.34 -9.17 C1.51 -9.62, 4.02 -8.93, 9.48 -9.25 M8.8 -8.81 C8.58 -5.96, 10 -4.99, 9.15 -0.17 M9.36 -9.55 C9.56 -6.58, 8.93 -3.1, 9.03 0.14 M9.22 0.82 C10.7 0.81, 13.7 -0.75, 18.82 0.7 M9.05 -0.42 C13.14 -0.43, 16.79 -0.41, 19.2 0.27 M18.73 -0.5 C18.68 2.94, 18.04 3.82, 18.71 9.99 M19.01 0.33 C18.84 1.57, 19.19 3.87, 18.33 9.76 M18.04 8.54 C15.71 8.91, 12.95 9.59, 9.46 9.02 M18.84 9.38 C16.52 9.67, 14.19 9.1, 9.43 8.96 M8.59 9.87 C10.01 12.2, 10.36 15.27, 9.31 17.85 M9.48 9.34 C9.38 12.1, 9.6 14.15, 9.09 18.51 M10.31 19.47 C7.07 19.14, 5.71 18.8, -0.76 18.75 M9.72 18.91 C5.72 18.35, 2.25 18.6, -0.19 18.55 M-0.61 18.37 C0.37 14.95, 0.83 11.12, -0.34 9.11 M0.03 18.64 C0.11 16.71, 0.33 15.11, -0.39 9.5 M-0.18 9.24 C-3.4 8.36, -6.65 9.99, -8.82 9.23 M-0.33 9.79 C-1.81 8.98, -4.46 9.04, -9.09 9.03 M-8.89 9.26 C-9.35 6.86, -9.77 3.1, -8.81 0.83 M-9.1 9.49 C-9.6 6.6, -8.95 4.6, -8.94 0.36 M-9.46 -0.17 C-6.43 0.67, -4.89 0.36, -0.86 0.54 M-9.57 -0.04 C-6.62 0.45, -2.68 -0.3, -0.04 -0.46 M0 0 C0 0, 0 0, 0 0 M0 0 C0 0, 0 0, 0 0" stroke="#000000" stroke-width="1" fill="none"></path></g></g><mask></mask><g stroke-linecap="round" transform="translate(381.51642696072565 547.3541414686897) rotate(0 21.58710870260842 21.58710870260842)"><path d="M11.57 1.52 C15.26 -0.75, 21.74 -0.02, 26.18 1.15 C30.63 2.33, 35.54 5, 38.25 8.6 C40.95 12.19, 42.58 18.09, 42.39 22.73 C42.2 27.37, 40.07 33.09, 37.12 36.43 C34.17 39.78, 29.09 42.33, 24.71 42.79 C20.33 43.26, 14.86 41.68, 10.85 39.23 C6.83 36.78, 2.06 32.44, 0.64 28.1 C-0.77 23.76, -0.22 17.76, 2.36 13.19 C4.94 8.62, 13.33 2.71, 16.12 0.67 C18.91 -1.37, 19.18 0.39, 19.09 0.95 M22.55 -1.05 C26.89 -1.07, 33.61 3.04, 37.14 6.63 C40.68 10.23, 43.38 15.8, 43.75 20.51 C44.11 25.23, 41.98 31.46, 39.34 34.91 C36.7 38.37, 32.41 40.15, 27.9 41.24 C23.39 42.33, 16.55 43.27, 12.31 41.44 C8.07 39.61, 4.23 34.27, 2.46 30.24 C0.69 26.21, 0.57 21.45, 1.7 17.26 C2.82 13.06, 5.43 8.05, 9.18 5.05 C12.94 2.06, 21.72 -0.18, 24.21 -0.72 C26.7 -1.27, 24.38 1.09, 24.13 1.78" stroke="none" stroke-width="0" fill="#fa5252"></path><path d="M30.59 2.08 C34.63 3.48, 38.43 6.5, 40.34 10.67 C42.25 14.84, 43.1 22.45, 42.05 27.11 C41 31.76, 37.56 35.99, 34.03 38.6 C30.5 41.2, 25.45 42.94, 20.87 42.74 C16.3 42.55, 10 40.4, 6.59 37.42 C3.18 34.44, 1.07 29.51, 0.42 24.88 C-0.23 20.25, 0.4 13.66, 2.7 9.64 C5 5.62, 9.2 1.82, 14.24 0.76 C19.27 -0.3, 29.51 2.47, 32.9 3.31 C36.28 4.15, 34.78 5.68, 34.53 5.8 M13.75 2.14 C18.03 0.12, 24.9 0.33, 29.29 1.76 C33.67 3.19, 37.68 6.84, 40.07 10.71 C42.47 14.57, 44.4 20.43, 43.66 24.94 C42.91 29.45, 38.9 34.54, 35.6 37.75 C32.31 40.95, 28.47 43.93, 23.89 44.18 C19.31 44.44, 12.23 42.22, 8.12 39.29 C4.01 36.36, 0.06 31.07, -0.79 26.63 C-1.64 22.18, 0.5 16.7, 2.99 12.62 C5.49 8.54, 12.54 4.13, 14.18 2.15 C15.82 0.17, 13.07 0.27, 12.85 0.75" stroke="#000000" stroke-width="1" fill="none"></path></g><g stroke-linecap="round"><g transform="translate(398.38628422979525 564.0891142152908) rotate(314.8018799663395 4.641990609314405 4.809205889595717)" fill-rule="evenodd"><path d="M1.09 -1.87 L0.15 -10.54 L11.33 -11.17 L9.09 -0.61 L19.26 -0.42 L18.17 9.2 L11.21 8.08 L11.12 16.91 L-0.11 19.91 L-1.89 10.91 L-7.86 11.03 L-8.58 -1.79 L-1.58 -0.01" stroke="none" stroke-width="0" fill="#ffffff" fill-rule="evenodd"></path><path d="M0.38 -0.72 C0.75 -2.88, -0.33 -7.47, -0.58 -8.52 M-0.19 -0.21 C-0.05 -2.01, 0.2 -4.53, -0.19 -9.75 M-0.68 -9.03 C2.34 -10.25, 4.41 -9.86, 10.19 -9.09 M0.09 -9.14 C3.33 -9.24, 6.05 -9.34, 9.8 -9.05 M9.59 -9.02 C10.02 -6.23, 9.73 -4.58, 8.57 -0.82 M8.93 -9.14 C9.62 -5.66, 8.92 -1.99, 9.7 -0.18 M8.94 0.34 C12.6 -0.2, 16.2 -0.63, 18.39 -0.1 M9.26 -0.15 C13.11 -0.24, 16.93 -0.02, 19.1 0.26 M19.19 0.44 C19.53 2.43, 19.56 5.27, 18.11 8.97 M19.11 0.23 C18.91 3.12, 19.18 5.47, 19.15 9.78 M19.58 9.7 C16.82 9.71, 13.01 10.34, 9.81 9.36 M18.52 8.97 C17.09 9.74, 14.58 9.7, 9.04 9.59 M10.19 8.86 C8.53 12.13, 9.21 14.26, 9.54 18.9 M9.81 9.08 C9.31 11.63, 9.5 14.59, 9.01 18.42 M9.72 18.25 C6.64 19.11, 4.39 18.6, -0.01 19.43 M9.31 18.74 C7.41 18.91, 4.18 18.89, 0.46 18.32 M0.71 19.4 C0.55 15.66, -0.77 13.2, -0.39 9.61 M-0.35 18.98 C0.02 15.1, -0.15 11.85, 0.24 9.77 M0.54 9.7 C-2.31 8.71, -4.35 10.19, -9.07 9.07 M0.35 9.76 C-2.56 9.85, -5.76 9.13, -9.52 9.65 M-10.3 8.46 C-9.5 6.51, -9.03 4.28, -8.48 0.59 M-8.98 9.76 C-9.24 7.42, -9.26 4.78, -9.02 0.44 M-9.68 -0.92 C-6.18 -0.31, -4.67 0.31, -0.77 -0.14 M-9.62 -0.03 C-6.02 0.01, -2.74 -0.34, 0.34 0.34 M0 0 C0 0, 0 0, 0 0 M0 0 C0 0, 0 0, 0 0" stroke="#000000" stroke-width="1" fill="none"></path></g></g><mask></mask><g stroke-linecap="round"><g transform="translate(647.686422806054 106.82320771934545) rotate(0 0 82.39684711857056)"><path d="M0 0 C0 54.28, 0 108.56, 0 164.79 M0 0 C0 65.62, 0 131.24, 0 164.79" stroke="#f08c00" stroke-width="4" fill="none"></path></g></g><mask></mask><g stroke-linecap="round"><g transform="translate(649.1772189843664 497.707514650145) rotate(0 0 82.39684711857055)"><path d="M0 0 C0 48.04, 0 96.09, 0 164.79 M0 0 C0 48.14, 0 96.27, 0 164.79" stroke="#f08c00" stroke-width="4" fill="none"></path></g></g><mask></mask><g stroke-linecap="round"><g transform="translate(406.04676965906765 141.98481251849472) rotate(0 119.13503837868484 0)"><path d="M0 0 C65.04 0, 130.08 0, 238.27 0 M0 0 C55.58 0, 111.17 0, 238.27 0" stroke="#1e1e1e" stroke-width="1" fill="none"></path></g><g transform="translate(406.04676965906765 141.98481251849472) rotate(0 119.13503837868484 0)"><path d="M238.27 0 L224.68 6.34 L224.68 -6.34 L238.27 0" stroke="none" stroke-width="0" fill="#1e1e1e" fill-rule="evenodd"></path><path d="M238.27 0 C234.56 1.73, 230.85 3.46, 224.68 6.34 M238.27 0 C235.1 1.48, 231.93 2.96, 224.68 6.34 M224.68 6.34 C224.68 2.95, 224.68 -0.45, 224.68 -6.34 M224.68 6.34 C224.68 2.5, 224.68 -1.35, 224.68 -6.34 M224.68 -6.34 C229.14 -4.26, 233.6 -2.18, 238.27 0 M224.68 -6.34 C229.92 -3.89, 235.16 -1.45, 238.27 0 M238.27 0 C238.27 0, 238.27 0, 238.27 0 M238.27 0 C238.27 0, 238.27 0, 238.27 0" stroke="#1e1e1e" stroke-width="1" fill="none"></path></g></g><mask></mask><g stroke-linecap="round"><g transform="translate(407.5375658373795 532.8691194492942) rotate(0 119.1350383786849 0)"><path d="M0 0 C90.05 0, 180.11 0, 238.27 0 M0 0 C75.39 0, 150.78 0, 238.27 0" stroke="#1e1e1e" stroke-width="1" fill="none"></path></g><g transform="translate(407.5375658373795 532.8691194492942) rotate(0 119.1350383786849 0)"><path d="M238.27 0 L224.68 6.34 L224.68 -6.34 L238.27 0" stroke="none" stroke-width="0" fill="#1e1e1e" fill-rule="evenodd"></path><path d="M238.27 0 C233.13 2.4, 227.99 4.79, 224.68 6.34 M238.27 0 C233.97 2.01, 229.67 4.01, 224.68 6.34 M224.68 6.34 C224.68 2.32, 224.68 -1.69, 224.68 -6.34 M224.68 6.34 C224.68 1.88, 224.68 -2.57, 224.68 -6.34 M224.68 -6.34 C227.57 -4.99, 230.46 -3.64, 238.27 0 M224.68 -6.34 C229.46 -4.11, 234.25 -1.88, 238.27 0 M238.27 0 C238.27 0, 238.27 0, 238.27 0 M238.27 0 C238.27 0, 238.27 0, 238.27 0" stroke="#1e1e1e" stroke-width="1" fill="none"></path></g></g><mask></mask><g stroke-linecap="round"><g transform="translate(405.08600322052985 247.1887375383817) rotate(0 119.61542159795374 0)"><path d="M0 0 C73.49 0, 146.98 0, 239.23 0" stroke="#1e1e1e" stroke-width="1.5" fill="none" stroke-dasharray="1.5 7"></path></g></g><mask></mask><g stroke-linecap="round"><g transform="translate(198.8305255455624 638.0730444691814) rotate(0 223.48855852459343 0)"><path d="M0 0 C152.1 0, 304.19 0, 446.98 0" stroke="#1e1e1e" stroke-width="1.5" fill="none" stroke-dasharray="1.5 7"></path></g></g><mask></mask><g transform="translate(10 10) rotate(0 272.80859375 16.099999999999998)"><text x="272.80859375" y="0" font-family="Helvetica, Segoe UI Emoji" font-size="28px" fill="#1e1e1e" text-anchor="middle" style="white-space: pre;" direction="ltr" dominant-baseline="text-before-edge">RTO - Recovery Time Objectives - Zeitleiste</text></g><g transform="translate(10 414.3743255736724) rotate(0 268.419921875 16.099999999999994)"><text x="268.419921875" y="0" font-family="Helvetica, Segoe UI Emoji" font-size="28px" fill="#1e1e1e" text-anchor="middle" style="white-space: pre;" direction="ltr" dominant-baseline="text-before-edge">RPO - Recovery Point Objective - Zeitleiste</text></g><g transform="translate(33.95918458689391 42.60675923063405) rotate(0 253.46484375 18.4)"><text x="0" y="0" font-family="Helvetica, Segoe UI Emoji" font-size="16px" fill="#1e1e1e" text-anchor="start" style="white-space: pre;" direction="ltr" dominant-baseline="text-before-edge">RTO geben die Zeitspanne zwischen dem Auftreten eines störenden </text><text x="0" y="18.4" font-family="Helvetica, Segoe UI Emoji" font-size="16px" fill="#1e1e1e" text-anchor="start" style="white-space: pre;" direction="ltr" dominant-baseline="text-before-edge">Ereignisses und dem Zeitpunkt an, zu dem alles wieder einsatzfähig ist.</text></g><g transform="translate(29.570512711894025 446.98108480430653) rotate(0 239.6484375 9.199999999999989)"><text x="0" y="0" font-family="Helvetica, Segoe UI Emoji" font-size="16px" fill="#1e1e1e" text-anchor="start" style="white-space: pre;" direction="ltr" dominant-baseline="text-before-edge">RPO gibt die Zeitspanne an, für die Daten 'verloren gegangen' sind.</text></g><g transform="translate(359.2378114404289 692.8610689006058) rotate(0 48.015625 27.600000000000023)"><text x="48.015625" y="0" font-family="Helvetica, Segoe UI Emoji" font-size="16px" fill="#1e1e1e" text-anchor="middle" style="white-space: pre;" direction="ltr" dominant-baseline="text-before-edge">Zeitpunkt</text><text x="48.015625" y="18.4" font-family="Helvetica, Segoe UI Emoji" font-size="16px" fill="#1e1e1e" text-anchor="middle" style="white-space: pre;" direction="ltr" dominant-baseline="text-before-edge">des</text><text x="48.015625" y="36.8" font-family="Helvetica, Segoe UI Emoji" font-size="16px" fill="#1e1e1e" text-anchor="middle" style="white-space: pre;" direction="ltr" dominant-baseline="text-before-edge">Zwischenfalls</text></g><g transform="translate(350 290) rotate(0 48.015625 27.599999999999994)"><text x="48.015625" y="0" font-family="Helvetica, Segoe UI Emoji" font-size="16px" fill="#1e1e1e" text-anchor="middle" style="white-space: pre;" direction="ltr" dominant-baseline="text-before-edge">Zeitpunkt</text><text x="48.015625" y="18.4" font-family="Helvetica, Segoe UI Emoji" font-size="16px" fill="#1e1e1e" text-anchor="middle" style="white-space: pre;" direction="ltr" dominant-baseline="text-before-edge">des</text><text x="48.015625" y="36.8" font-family="Helvetica, Segoe UI Emoji" font-size="16px" fill="#1e1e1e" text-anchor="middle" style="white-space: pre;" direction="ltr" dominant-baseline="text-before-edge">Zwischenfalls</text></g><g transform="translate(150 690) rotate(0 38.69140625 27.600000000000023)"><text x="38.69140625" y="0" font-family="Helvetica, Segoe UI Emoji" font-size="16px" fill="#1e1e1e" text-anchor="middle" style="white-space: pre;" direction="ltr" dominant-baseline="text-before-edge">Zeitpunkt</text><text x="38.69140625" y="18.4" font-family="Helvetica, Segoe UI Emoji" font-size="16px" fill="#1e1e1e" text-anchor="middle" style="white-space: pre;" direction="ltr" dominant-baseline="text-before-edge">des letzten</text><text x="38.69140625" y="36.8" font-family="Helvetica, Segoe UI Emoji" font-size="16px" fill="#1e1e1e" text-anchor="middle" style="white-space: pre;" direction="ltr" dominant-baseline="text-before-edge">Backups</text></g><g transform="translate(601.2421875 290) rotate(0 62.25 18.400000000000006)"><text x="62.25" y="0" font-family="Helvetica, Segoe UI Emoji" font-size="16px" fill="#1e1e1e" text-anchor="middle" style="white-space: pre;" direction="ltr" dominant-baseline="text-before-edge">Zeitpunkt:</text><text x="62.25" y="18.4" font-family="Helvetica, Segoe UI Emoji" font-size="16px" fill="#1e1e1e" text-anchor="middle" style="white-space: pre;" direction="ltr" dominant-baseline="text-before-edge">Wiederhergestellt</text></g><g transform="translate(590 690) rotate(0 62.25 18.399999999999977)"><text x="62.25" y="0" font-family="Helvetica, Segoe UI Emoji" font-size="16px" fill="#1e1e1e" text-anchor="middle" style="white-space: pre;" direction="ltr" dominant-baseline="text-before-edge">Zeitpunkt:</text><text x="62.25" y="18.4" font-family="Helvetica, Segoe UI Emoji" font-size="16px" fill="#1e1e1e" text-anchor="middle" style="white-space: pre;" direction="ltr" dominant-baseline="text-before-edge">Wiederhergestellt</text></g><g stroke-linecap="round"><g transform="translate(199.48184714210822 651.4817731078183) rotate(0 96.20875155670103 1.7520594991034955)"><path d="M0.09 2.49 C32.49 2.25, 163.01 0.73, 195.73 -0.06 M-3.31 1.38 C28.7 1.49, 160.89 3.82, 194.03 3.54" stroke="#e03131" stroke-width="4" fill="none"></path></g></g><mask></mask><g stroke-linecap="round"><g transform="translate(405.5296477025927 281.1099607246857) rotate(0 117.36663349126212 -1.3930616531906423)"><path d="M1.03 1.1 C40.28 1.19, 197.42 1.24, 236.59 0.69 M-1.85 -0.77 C36.97 -1.59, 195.23 -4.03, 234.56 -3.94" stroke="#e03131" stroke-width="4" fill="none"></path></g></g><mask></mask></svg>